<?xml version="1.0" encoding="UTF-8" standalone="no"?>
<svg
   id="Ebene_1"
   data-name="Ebene 1"
   viewBox="0 0 22.066053 21.973845"
   version="1.1"
   width="22.066053"
   height="21.973845"
   xmlns="http://www.w3.org/2000/svg"
   xmlns:svg="http://www.w3.org/2000/svg">
  <defs
     id="defs4">
    <style
       id="style2">
      .cls-1 {
        fill: #052e37;
      }

      .cls-2 {
        fill: #bfce40;
      }
    </style>
  </defs>
  <g
     id="g842">
    <path
       class="cls-1"
       d="m 18.591365,8.85 c -0.62,-0.71 -0.87,-1.45 -0.76,-2.19 0.18,-1.14 1.16,-2.07 1.75,-2.54 0.02,-0.02 0.02,-0.04 0,-0.06 -0.14,-0.17 -0.28,-0.33 -0.42,-0.49 -0.02,-0.02 -0.04,-0.02 -0.06,0 -0.69,0.55 -1.79,1.61 -2,2.99 -0.15,0.97 0.16,1.9 0.93,2.79 1.08,1.25 2.39,2.04 3.91,2.39 0.03,0 0.05,-0.01 0.06,-0.04 0,-0.13 0.02,-0.46 0.03,-0.66 0,-0.02 -0.01,-0.04 -0.03,-0.04 -1.33,-0.32 -2.45,-1.01 -3.4,-2.12 z"
       id="path6"
       style="fill:#052e37;fill-opacity:1" />
    <path
       class="cls-2"
       d="m 14.471365,14.09 c -2.29,1.23 -3.37,1.11 -3.88,0.79 -0.58,-0.37 -0.6200004,-1.14 -0.6000004,-1.46 0.05,-1.18 0.6700004,-2.23 1.3800004,-3.43 0.89,-1.5 1.9,-3.21 2.08,-5.66 0.08,-1.01 -0.31,-2.55 -2.39,-4.33 h -0.02 c -0.34,0 -0.67,0 -1.01,0.04 -0.03,0 -0.04,0.05 -0.02,0.06 2.36,1.79 2.78,3.25 2.71,4.17 -0.17,2.28 -1.13,3.91 -1.98,5.34 -0.73,1.24 -1.4200004,2.41 -1.4800004,3.77 -0.04,0.94 0.3,1.71 0.9500004,2.12 0.34,0.22 0.76,0.32 1.24,0.32 0.89,0 2.02,-0.36 3.37,-1.09 1.77,-0.95 3.86,-0.71 6.21,0.7 0.02,0.01 0.04,0 0.05,-0.02 0.09,-0.21 0.18,-0.41 0.26,-0.62 0,-0.02 0,-0.04 -0.02,-0.04 -2.55,-1.51 -4.86,-1.74 -6.86,-0.67 z"
       id="path8" />
    <path
       class="cls-1"
       d="m 7.3613646,18.72 c -0.87,-3.1 0.23,-5.78 1.65,-8.7 0.14,-0.28 0.27,-0.56 0.41,-0.82 0.9300004,-1.86 1.7200004,-3.46 1.3200004,-5.47 -0.34,-1.71 -1.7600004,-2.71 -2.8900004,-3.25 0,0 -0.01,0 -0.02,0 -0.32,0.1 -0.64,0.21 -0.95,0.34 -0.02,0.01 -0.03,0.04 0,0.05 0.99,0.36 2.78,1.24 3.1400004,3 0.35,1.77 -0.3600004,3.2 -1.2600004,5 -0.13,0.27 -0.27,0.54 -0.41,0.83 -1.49,3.07 -2.64,5.88 -1.69,9.23 0.33,1.16 0.77,1.99 1.21,2.57 0,0 0,0 0.02,0.01 0.4,0.12 0.8,0.22 1.22,0.29 0.03,0 0.05,-0.03 0.02,-0.05 -0.53,-0.43 -1.28,-1.3 -1.76,-3.02 z"
       id="path10"
       style="fill:#052e37;fill-opacity:1" />
    <path
       class="cls-1"
       d="m 8.0313646,6.16 c 0.36,-2.75 -1.6,-3.89 -3.03,-4.35 0,0 -0.02,0 -0.03,0 -0.24,0.16 -0.47,0.33 -0.69,0.5 -0.02,0.02 -0.01,0.05 0.01,0.06 2.93,0.65 3.15,2.57 3,3.69 -0.82,6.37 -4.54,8.44 -6.37999997,9.08 -0.02,0 -0.03,0.03 -0.02,0.04 0.09,0.21 0.17999997,0.42 0.27999997,0.62 0,0.01 0.02,0.02 0.04,0.02 0.84,-0.29 1.97,-0.84 3.09,-1.84 2.04,-1.82 3.29,-4.45 3.73,-7.82 z"
       id="path12"
       style="fill:#052e37;fill-opacity:1" />
    <path
       class="cls-1"
       d="m 1.7113646,11.95 c 0.19,0.06 0.39,0.09 0.59,0.09 0.71,0 1.45,-0.38 2.11,-1.11 1.1,-1.2 1.92,-3.37 1.34,-4.8 -0.66,-1.63 -2.19,-1.97 -3.27,-2.01 0,0 -0.02,0 -0.02,0 -0.18,0.22 -0.35,0.45 -0.51,0.69 -0.01,0.02 0,0.04 0.02,0.04 1.2,-0.03 2.53,0.17 3.09,1.55 0.41,1.02 -0.14,2.87 -1.2,4.03 -0.37,0.41 -1.13,1.06 -1.94,0.81 -0.67,-0.2 -1.24999997,-1.26 -1.62999997,-2.31 0,-0.02 -0.05,-0.02 -0.05,0 -0.08,0.45 -0.13,0.89 -0.16,1.35 0,0 0,0.01 0,0.01 0.39,0.74 0.91999997,1.45 1.61999997,1.66 z"
       id="path14"
       style="fill:#052e37;fill-opacity:1" />
    <path
       class="cls-1"
       d="m 2.3813646,9.26 c 0.06,0.01 0.13,0.02 0.19,0.02 0.34,0 0.65,-0.14 0.9,-0.42 v 0 c 0.62,-0.68 0.71,-1.43 0.23,-2.01 -0.56,-0.67 -1.76,-0.93 -2.42,-0.51 -0.25,0.16 -0.76999997,0.63 -0.28999997,1.7 C 1.2913646,8.7 1.8213646,9.17 2.3713646,9.26 Z m -0.7,-2.3 c 0.1,-0.06 0.24,-0.09 0.39,-0.09 0.37,0 0.83,0.16 1.07,0.45 0.09,0.11 0.36,0.43 -0.2,1.04 -0.13,0.14 -0.28,0.2 -0.44,0.17 -0.3,-0.05 -0.64,-0.37 -0.83,-0.8 -0.12,-0.27 -0.22,-0.63 0,-0.77 z"
       id="path16"
       style="fill:#052e37;fill-opacity:1" />
    <path
       class="cls-1"
       d="m 19.651365,6.47 c -0.25,0.69 -0.11,1.45 0.38,2.09 0.44,0.57 1.05,0.95 1.86,1.16 0.03,0 0.06,-0.02 0.06,-0.05 -0.03,-0.24 -0.06,-0.47 -0.11,-0.7 0,-0.02 -0.02,-0.03 -0.03,-0.04 -0.51,-0.17 -0.9,-0.44 -1.2,-0.82 -0.34,-0.44 -0.44,-0.93 -0.27,-1.39 0.09,-0.26 0.27,-0.49 0.49,-0.65 0.02,-0.01 0.02,-0.04 0.01,-0.06 -0.1,-0.19 -0.2,-0.38 -0.31,-0.57 -0.01,-0.02 -0.05,-0.03 -0.07,-0.02 -0.37,0.25 -0.67,0.61 -0.82,1.04 z"
       id="path18"
       style="fill:#052e37;fill-opacity:1" />
    <path
       class="cls-1"
       d="m 16.291365,11.67 c -0.38,0.03 -0.69,0.05 -1.02,0 -0.5,-0.09 -0.88,-0.37 -1.06,-0.79 -0.32,-0.73 -0.02,-1.85 0.84,-3.15 0.99,-1.5 1.54,-4.1 0.19,-6.89 0,0 -0.01,-0.02 -0.02,-0.02 -0.31,-0.13 -0.62,-0.24 -0.94,-0.34 -0.03,0 -0.06,0.02 -0.04,0.05 0.91,1.61 1.76,4.44 0.2,6.79 -1.28,1.93 -1.2,3.16 -0.9,3.85 0.28,0.65 0.87,1.1 1.62,1.23 0.42,0.07 0.8,0.04 1.2,0.01 0.97,-0.08 2.29,-0.18 5.32,1.24 0.02,0 0.05,0 0.05,-0.02 0.05,-0.22 0.1,-0.44 0.14,-0.67 0,-0.02 0,-0.03 -0.02,-0.04 -3.11,-1.43 -4.51,-1.32 -5.54,-1.24 z"
       id="path20"
       style="fill:#052e37;fill-opacity:1" />
    <path
       class="cls-1"
       d="m 16.351365,15.36 c -1.36,0.19 -2.58,0.85 -3.43,1.84 -0.86,1.01 -1.23,2.24 -1.06,3.48 0.06,0.41 0.18,0.81 0.35,1.18 0,0.02 0.03,0.03 0.06,0.03 0.22,-0.02 0.44,-0.06 0.66,-0.1 0.04,0 0.05,-0.05 0.04,-0.08 -0.19,-0.36 -0.32,-0.74 -0.38,-1.15 -0.15,-1.03 0.17,-2.06 0.89,-2.9 0.73,-0.86 1.78,-1.42 2.97,-1.59 1.35,-0.19 2.71,0.18 3.67,0.98 0.02,0.02 0.06,0.02 0.08,-0.01 0.12,-0.18 0.23,-0.36 0.33,-0.54 0.01,-0.02 0,-0.05 -0.01,-0.07 -1.11,-0.89 -2.64,-1.31 -4.17,-1.09 z"
       id="path22"
       style="fill:#052e37;fill-opacity:1" />
    <path
       class="cls-1"
       d="m 17.591365,17.4 c -1.26,0.18 -2.15,1.29 -1.98,2.48 0.05,0.32 0.16,0.62 0.34,0.88 0.01,0.02 0.04,0.03 0.06,0.02 0.19,-0.1 0.38,-0.2 0.57,-0.31 0.02,-0.01 0.03,-0.05 0.01,-0.07 -0.14,-0.18 -0.22,-0.39 -0.26,-0.62 -0.11,-0.79 0.5,-1.53 1.36,-1.65 0.48,-0.07 0.96,0.08 1.3,0.37 0.02,0.02 0.05,0.02 0.07,0 0.15,-0.16 0.29,-0.32 0.43,-0.48 0.02,-0.02 0.01,-0.05 0,-0.07 -0.5,-0.43 -1.19,-0.65 -1.89,-0.55 z"
       id="path24"
       style="fill:#052e37;fill-opacity:1" />
  </g>
</svg>
