<svg id="Logo_mit_Zusatz" data-name="Logo mit Zusatz" xmlns="http://www.w3.org/2000/svg" xmlns:xlink="http://www.w3.org/1999/xlink" width="319.957" height="217.642" viewBox="0 0 319.957 217.642">
  <defs>
    <clipPath id="clip-path">
      <rect id="Rechteck_29" data-name="Rechteck 29" width="319.957" height="217.642" fill="none"/>
    </clipPath>
  </defs>
  <g id="Gruppe_238" data-name="Gruppe 238" clip-path="url(#clip-path)">
    <path id="Pfad_349" data-name="Pfad 349" d="M107.06,122.476V107.8a.374.374,0,0,1,.355-.4h5.22c2.821,0,4.846,1.169,4.846,3.9v.351a3.331,3.331,0,0,1-2.025,3.173,3.738,3.738,0,0,1,2.423,3.614v.286c0,3.151-2.534,4.1-5.178,4.1h-5.287a.336.336,0,0,1-.355-.352m1.675-8.394h3.988c1.652,0,3.084-.486,3.084-2.381v-.329c0-1.938-1.585-2.38-3.238-2.38h-3.834Zm0,7.182h4.054c1.718,0,3.437-.464,3.437-2.6V118.4c0-2.115-1.7-2.755-3.437-2.755h-4.054Z" transform="translate(10.853 10.888)" fill="#fff"/>
    <path id="Pfad_350" data-name="Pfad 350" d="M127.779,111.407a.391.391,0,0,1,.374.4V122.07a.353.353,0,0,1-.374.352h-.925a.342.342,0,0,1-.376-.352V121.1a3.293,3.293,0,0,1-3.039,1.542c-2.534,0-3.879-1.784-3.879-4.869V111.8a.378.378,0,0,1,.376-.4h.925a.392.392,0,0,1,.374.4v6.059c0,2.159.881,3.3,2.533,3.3,1.631,0,2.709-1.145,2.709-3.3V111.8a.378.378,0,0,1,.376-.4Z" transform="translate(12.12 11.293)" fill="#fff"/>
    <path id="Pfad_351" data-name="Pfad 351" d="M131,122.443a.341.341,0,0,1-.374-.352V111.824a.377.377,0,0,1,.374-.4h.925a.391.391,0,0,1,.376.4v1.057a3.322,3.322,0,0,1,3.083-1.674c2.71,0,4.142,1.984,4.142,4.913v5.971a.359.359,0,0,1-.4.352H138.2a.324.324,0,0,1-.351-.352V116.01c0-2.137-1.124-3.305-2.8-3.305-1.631,0-2.753,1.169-2.753,3.305v6.081a.353.353,0,0,1-.376.352Z" transform="translate(13.241 11.273)" fill="#fff"/>
    <path id="Pfad_352" data-name="Pfad 352" d="M148.716,121.44a3.534,3.534,0,0,1-3.173,1.609c-2.423,0-4.163-1.718-4.163-4.913v-1.63c0-3.173,1.717-4.913,4.163-4.913a3.535,3.535,0,0,1,3.173,1.63V107.8a.373.373,0,0,1,.352-.4h.925a.4.4,0,0,1,.4.4v14.674a.361.361,0,0,1-.4.352h-.925a.335.335,0,0,1-.352-.352Zm0-5.176c0-1.96-1.145-3.173-2.843-3.173-1.762,0-2.842,1.278-2.842,3.305v1.872c0,2.05,1.079,3.3,2.82,3.3s2.865-1.254,2.865-3.3Z" transform="translate(14.332 10.888)" fill="#fff"/>
    <path id="Pfad_353" data-name="Pfad 353" d="M154.032,118.015a2.883,2.883,0,0,0,2.886,3.172,2.585,2.585,0,0,0,2.666-1.872.4.4,0,0,1,.354-.242h1.035a.245.245,0,0,1,.242.242,1.237,1.237,0,0,1-.088.33,4.253,4.253,0,0,1-4.209,3.019c-2.555,0-4.538-1.784-4.538-4.869v-1.675c0-3.084,1.962-4.913,4.494-4.913,2.557,0,4.495,1.873,4.495,4.891v1.079a.357.357,0,0,1-.373.374h-6.963Zm5.706-1.785v-.33c0-2.027-1.189-3.194-2.865-3.194-1.629,0-2.842,1.167-2.842,3.217v.307Z" transform="translate(15.447 11.273)" fill="#fff"/>
    <path id="Pfad_354" data-name="Pfad 354" d="M171.067,119.446c0,2.358-1.9,3.217-4.142,3.217-2.511,0-3.944-1.454-4.164-2.975a.866.866,0,0,1,.023-.242.288.288,0,0,1,.285-.22h.925a.288.288,0,0,1,.331.264,2.445,2.445,0,0,0,2.621,1.74c1.41,0,2.49-.439,2.49-1.761,0-2.844-6.5-.574-6.5-5.2,0-2.226,2-3.062,3.878-3.062,3.393,0,3.812,2.335,3.988,2.93v.154a.3.3,0,0,1-.309.286h-.947c-.2,0-.263-.088-.307-.286-.155-.683-.53-1.63-2.468-1.63-.991,0-2.2.33-2.2,1.564,0,3,6.5.727,6.5,5.222" transform="translate(16.499 11.273)" fill="#fff"/>
    <path id="Pfad_355" data-name="Pfad 355" d="M180.818,122.09a.36.36,0,0,1-.4.352h-.838a.341.341,0,0,1-.373-.352v-1.057a3.237,3.237,0,0,1-3.041,1.631h-.419c-2.028,0-3.57-1.057-3.57-3.239,0-2.6,2.028-3.239,4.076-3.239h2.953v-.749c0-1.366-.242-2.731-2.534-2.731-1.74,0-2.182.683-2.358,1.586a.317.317,0,0,1-.33.286h-.947a.279.279,0,0,1-.308-.308.424.424,0,0,1,.022-.154c.2-1.322.969-2.909,3.922-2.909,3.768,0,4.142,2.379,4.142,4.274Zm-4.517-4.539c-1.828,0-2.511.574-2.511,1.873,0,1.256.991,1.828,2.159,1.828h.441c2.314,0,2.821-1.7,2.821-3v-.706Z" transform="translate(17.454 11.273)" fill="#fff"/>
    <path id="Pfad_356" data-name="Pfad 356" d="M183.535,122.443a.341.341,0,0,1-.374-.352V111.824a.377.377,0,0,1,.374-.4h.925a.391.391,0,0,1,.376.4v1.057a3.322,3.322,0,0,1,3.083-1.674c2.71,0,4.143,1.984,4.143,4.913v5.971a.36.36,0,0,1-.4.352h-.926a.324.324,0,0,1-.351-.352V116.01c0-2.137-1.125-3.305-2.8-3.305-1.631,0-2.753,1.169-2.753,3.305v6.081a.353.353,0,0,1-.376.352Z" transform="translate(18.567 11.273)" fill="#fff"/>
    <path id="Pfad_357" data-name="Pfad 357" d="M202.127,119.446c0,2.358-1.9,3.217-4.142,3.217-2.511,0-3.944-1.454-4.164-2.975a.866.866,0,0,1,.023-.242.288.288,0,0,1,.285-.22h.925a.288.288,0,0,1,.331.264,2.445,2.445,0,0,0,2.621,1.74c1.41,0,2.49-.439,2.49-1.761,0-2.844-6.5-.574-6.5-5.2,0-2.226,2-3.062,3.878-3.062,3.393,0,3.812,2.335,3.988,2.93v.154a.3.3,0,0,1-.309.286h-.947c-.2,0-.263-.088-.307-.286-.155-.683-.53-1.63-2.468-1.63-.991,0-2.2.33-2.2,1.564,0,3,6.5.727,6.5,5.222" transform="translate(19.648 11.273)" fill="#fff"/>
    <path id="Pfad_358" data-name="Pfad 358" d="M208.094,122.687c-3.019,0-3.525-1.3-3.525-3.878v-5.618h-1.7a.342.342,0,0,1-.354-.374v-.749a.361.361,0,0,1,.354-.4c1.166,0,1.74-.264,1.74-1.653V109.2a.361.361,0,0,1,.352-.4h.881a.378.378,0,0,1,.374.4v2.467h2.49a.376.376,0,0,1,.373.4v.749a.358.358,0,0,1-.373.374h-2.49v5.464c0,1.96.22,2.49,2.049,2.49h.442a.376.376,0,0,1,.373.4v.793a.341.341,0,0,1-.373.352Z" transform="translate(20.53 11.03)" fill="#fff"/>
    <path id="Pfad_359" data-name="Pfad 359" d="M218.8,122.09a.36.36,0,0,1-.4.352h-.838a.341.341,0,0,1-.373-.352v-1.057a3.237,3.237,0,0,1-3.041,1.631h-.419c-2.028,0-3.57-1.057-3.57-3.239,0-2.6,2.028-3.239,4.076-3.239h2.953v-.749c0-1.366-.242-2.731-2.534-2.731-1.74,0-2.182.683-2.358,1.586a.317.317,0,0,1-.33.286h-.947a.279.279,0,0,1-.308-.308.425.425,0,0,1,.022-.154c.2-1.322.969-2.909,3.922-2.909,3.768,0,4.142,2.379,4.142,4.274Zm-4.517-4.539c-1.828,0-2.511.574-2.511,1.873,0,1.256.991,1.828,2.159,1.828h.441c2.314,0,2.821-1.7,2.821-3v-.706Z" transform="translate(21.304 11.273)" fill="#fff"/>
    <path id="Pfad_360" data-name="Pfad 360" d="M221.532,122.828a.324.324,0,0,1-.352-.352V107.8a.36.36,0,0,1,.352-.4h.925a.377.377,0,0,1,.374.4v14.674a.341.341,0,0,1-.374.352Z" transform="translate(22.421 10.888)" fill="#fff"/>
    <path id="Pfad_361" data-name="Pfad 361" d="M230.014,122.687c-3.019,0-3.525-1.3-3.525-3.878v-5.618h-1.7a.342.342,0,0,1-.354-.374v-.749a.361.361,0,0,1,.354-.4c1.166,0,1.74-.264,1.74-1.653V109.2a.361.361,0,0,1,.352-.4h.881a.378.378,0,0,1,.374.4v2.467h2.49a.376.376,0,0,1,.373.4v.749a.358.358,0,0,1-.373.374h-2.49v5.464c0,1.96.22,2.49,2.049,2.49h.442a.376.376,0,0,1,.373.4v.793a.341.341,0,0,1-.373.352Z" transform="translate(22.752 11.03)" fill="#fff"/>
    <path id="Pfad_362" data-name="Pfad 362" d="M242.744,112.958a.358.358,0,0,1-.374.374H239.9v9.144a.353.353,0,0,1-.374.352H238.6a.341.341,0,0,1-.374-.352v-9.144h-1.7a.341.341,0,0,1-.352-.374v-.749a.36.36,0,0,1,.352-.4h1.7V111.5c0-2.842.706-4.1,3.746-4.1h.4a.377.377,0,0,1,.374.4v.793a.354.354,0,0,1-.374.352h-.4c-1.762,0-2.071.374-2.071,2.556v.308h2.467a.377.377,0,0,1,.374.4Z" transform="translate(23.942 10.888)" fill="#fff"/>
    <path id="Pfad_363" data-name="Pfad 363" d="M252.658,111.77a.391.391,0,0,1,.374.4v10.267a.353.353,0,0,1-.374.352h-.925a.341.341,0,0,1-.374-.352v-.969a3.3,3.3,0,0,1-3.04,1.542c-2.534,0-3.879-1.784-3.879-4.869v-5.971a.378.378,0,0,1,.376-.4h.925a.391.391,0,0,1,.374.4v6.059c0,2.159.882,3.3,2.534,3.3,1.63,0,2.709-1.145,2.709-3.3v-6.059a.377.377,0,0,1,.374-.4Zm-6.808-2.887a.994.994,0,0,1,1.057-1.057,1.058,1.058,0,0,1,0,2.116,1,1,0,0,1-1.057-1.058m3.834,0a.994.994,0,0,1,1.057-1.057,1.058,1.058,0,0,1,0,2.116,1,1,0,0,1-1.057-1.058" transform="translate(24.779 10.93)" fill="#fff"/>
    <path id="Pfad_364" data-name="Pfad 364" d="M255.874,122.423a.341.341,0,0,1-.374-.352V111.8a.377.377,0,0,1,.374-.4h.837a.378.378,0,0,1,.376.4v1.476a3.256,3.256,0,0,1,3.106-1.872h.308a.4.4,0,0,1,.4.4v.881a.377.377,0,0,1-.4.374h-.33c-2.2,0-3.019,1.828-3.019,3.636v5.376a.341.341,0,0,1-.374.352Z" transform="translate(25.9 11.293)" fill="#fff"/>
    <path id="Pfad_365" data-name="Pfad 365" d="M112.4,140.547a.341.341,0,0,1-.374-.351V139.4a.359.359,0,0,1,.374-.374h5.024a.358.358,0,0,1,.373.374V146.5a.341.341,0,0,1-.373.354h-.794a.325.325,0,0,1-.352-.354v-1.542a4.618,4.618,0,0,1-4.053,2.116c-3.57,0-5.64-2.732-5.64-5.994v-3.833c0-3.68,2.467-6.037,5.684-6.037a5.4,5.4,0,0,1,5.508,4.671,2.724,2.724,0,0,1,.021.352.215.215,0,0,1-.22.242h-1.189c-.154,0-.242-.111-.286-.354a3.773,3.773,0,0,0-3.833-3.326c-2.2,0-3.988,1.652-3.988,4.473v3.811c0,2.8,1.784,4.429,4.009,4.429a3.813,3.813,0,0,0,3.878-3.811v-1.147Z" transform="translate(10.804 13.3)" fill="#fff"/>
    <path id="Pfad_366" data-name="Pfad 366" d="M121.233,142.015a2.883,2.883,0,0,0,2.886,3.172,2.585,2.585,0,0,0,2.666-1.872.4.4,0,0,1,.354-.242h1.035a.245.245,0,0,1,.242.242,1.237,1.237,0,0,1-.088.33,4.253,4.253,0,0,1-4.209,3.019c-2.555,0-4.538-1.784-4.538-4.869v-1.675c0-3.084,1.962-4.913,4.494-4.913,2.557,0,4.495,1.873,4.495,4.891v1.079a.357.357,0,0,1-.373.374h-6.963Zm5.706-1.785v-.33c0-2.027-1.189-3.194-2.865-3.194-1.629,0-2.842,1.167-2.842,3.217v.307Z" transform="translate(12.122 13.706)" fill="#fff"/>
    <path id="Pfad_367" data-name="Pfad 367" d="M130.062,140.119c0-3.084,1.938-4.913,4.494-4.913,2.534,0,4.495,1.829,4.495,4.913v1.675c0,3.085-1.96,4.869-4.495,4.869-2.555,0-4.494-1.784-4.494-4.869Zm1.652,1.763c0,2.159,1.189,3.3,2.842,3.3s2.821-1.145,2.821-3.3V140.01c0-2.138-1.167-3.305-2.821-3.305s-2.842,1.167-2.842,3.305Z" transform="translate(13.184 13.706)" fill="#fff"/>
    <path id="Pfad_368" data-name="Pfad 368" d="M141.394,146.828a.324.324,0,0,1-.352-.352V131.8a.36.36,0,0,1,.352-.4h.925a.377.377,0,0,1,.374.4v14.674a.341.341,0,0,1-.374.352Z" transform="translate(14.298 13.321)" fill="#fff"/>
    <path id="Pfad_369" data-name="Pfad 369" d="M145.362,140.119c0-3.084,1.938-4.913,4.494-4.913,2.534,0,4.495,1.829,4.495,4.913v1.675c0,3.085-1.96,4.869-4.495,4.869-2.555,0-4.494-1.784-4.494-4.869Zm1.652,1.763c0,2.159,1.189,3.3,2.842,3.3s2.821-1.145,2.821-3.3V140.01c0-2.138-1.167-3.305-2.821-3.305s-2.842,1.167-2.842,3.305Z" transform="translate(14.735 13.706)" fill="#fff"/>
    <path id="Pfad_370" data-name="Pfad 370" d="M159.364,151.171c-2.446,0-3.7-1.454-3.7-3.2a2.669,2.669,0,0,1,1.366-2.489,1.824,1.824,0,0,1-1.145-1.763,1.862,1.862,0,0,1,1.7-1.938,3.158,3.158,0,0,1-1.41-2.777,3.73,3.73,0,0,1,4.032-3.7h.595a3.784,3.784,0,0,1,2.555.924V134.58a.371.371,0,0,1,.374-.373h.794a.371.371,0,0,1,.373.373v4.429a3.69,3.69,0,0,1-4.009,3.724h-2.27c-.749,0-1.212.308-1.212.991,0,.749.441.992,1.564.992h2.843c2.423,0,3.7,1.454,3.7,3.26,0,1.785-1.278,3.2-3.7,3.2Zm-2.071-3.217c0,1.1.617,1.828,2.291,1.828h1.984c1.7,0,2.313-.727,2.313-1.828s-.617-1.872-2.313-1.872h-1.984c-1.674,0-2.291.771-2.291,1.872m.507-8.945a2.276,2.276,0,0,0,2.49,2.336h.483a2.332,2.332,0,1,0,0-4.65h-.483a2.272,2.272,0,0,0-2.49,2.314" transform="translate(15.78 13.605)" fill="#fff"/>
    <path id="Pfad_371" data-name="Pfad 371" d="M166.642,132.49a1.123,1.123,0,1,1,1.124,1.122,1.076,1.076,0,0,1-1.124-1.122m.661,14.342a.342.342,0,0,1-.374-.352V136.213a.377.377,0,0,1,.374-.4h.926a.391.391,0,0,1,.374.4V146.48a.353.353,0,0,1-.374.352Z" transform="translate(16.893 13.317)" fill="#fff"/>
    <path id="Pfad_372" data-name="Pfad 372" d="M172.974,142.015a2.883,2.883,0,0,0,2.886,3.172,2.585,2.585,0,0,0,2.666-1.872.4.4,0,0,1,.354-.242h1.035a.245.245,0,0,1,.242.242,1.237,1.237,0,0,1-.088.33,4.253,4.253,0,0,1-4.209,3.019c-2.555,0-4.538-1.784-4.538-4.869v-1.675c0-3.084,1.962-4.913,4.494-4.913,2.557,0,4.495,1.873,4.495,4.891v1.079a.357.357,0,0,1-.373.374h-6.963Zm5.706-1.785v-.33c0-2.027-1.189-3.194-2.865-3.194-1.629,0-2.842,1.167-2.842,3.217v.307Z" transform="translate(17.367 13.706)" fill="#fff"/>
    <path id="Pfad_373" data-name="Pfad 373" d="M181.663,144.5a1.2,1.2,0,0,1,1.278-1.256c.793,0,1.322.507,1.322,1.718,0,2.975-2.049,3.922-2.4,3.922-.109,0-.175-.022-.175-.22v-.749c0-.242.021-.264.242-.4a2.306,2.306,0,0,0,.925-1.762,1.189,1.189,0,0,1-1.189-1.257" transform="translate(18.415 14.521)" fill="#fff"/>
    <path id="Pfad_374" data-name="Pfad 374" d="M197.037,140.547a.341.341,0,0,1-.374-.351V139.4a.359.359,0,0,1,.374-.374h5.024a.358.358,0,0,1,.373.374V146.5a.341.341,0,0,1-.373.354h-.794a.325.325,0,0,1-.352-.354v-1.542a4.618,4.618,0,0,1-4.053,2.116c-3.57,0-5.64-2.732-5.64-5.994v-3.833c0-3.68,2.467-6.037,5.684-6.037a5.4,5.4,0,0,1,5.508,4.671,2.726,2.726,0,0,1,.021.352.215.215,0,0,1-.22.242h-1.189c-.154,0-.242-.111-.286-.354a3.773,3.773,0,0,0-3.833-3.326c-2.2,0-3.988,1.652-3.988,4.473v3.811c0,2.8,1.784,4.429,4.009,4.429a3.813,3.813,0,0,0,3.878-3.811v-1.147Z" transform="translate(19.384 13.3)" fill="#fff"/>
    <path id="Pfad_375" data-name="Pfad 375" d="M205.873,142.015a2.883,2.883,0,0,0,2.886,3.172,2.585,2.585,0,0,0,2.666-1.872.4.4,0,0,1,.354-.242h1.035a.245.245,0,0,1,.242.242,1.237,1.237,0,0,1-.088.33,4.253,4.253,0,0,1-4.209,3.019c-2.555,0-4.538-1.784-4.538-4.869v-1.675c0-3.084,1.962-4.913,4.494-4.913,2.557,0,4.495,1.873,4.495,4.891v1.079a.357.357,0,0,1-.373.374h-6.963Zm5.706-1.785v-.33c0-2.027-1.189-3.194-2.865-3.194-1.629,0-2.842,1.167-2.842,3.217v.307Z" transform="translate(20.702 13.706)" fill="#fff"/>
    <path id="Pfad_376" data-name="Pfad 376" d="M214.7,140.119c0-3.084,1.938-4.913,4.495-4.913,2.533,0,4.494,1.829,4.494,4.913v1.675c0,3.085-1.96,4.869-4.494,4.869-2.556,0-4.495-1.784-4.495-4.869Zm1.652,1.763c0,2.159,1.191,3.3,2.843,3.3s2.821-1.145,2.821-3.3V140.01c0-2.138-1.169-3.305-2.821-3.305s-2.843,1.167-2.843,3.305Z" transform="translate(21.765 13.706)" fill="#fff"/>
    <path id="Pfad_377" data-name="Pfad 377" d="M227.315,150.475a.372.372,0,0,1-.376.374h-.925a.359.359,0,0,1-.373-.374V135.824a.377.377,0,0,1,.373-.4h.925a.391.391,0,0,1,.376.4v1.013a3.537,3.537,0,0,1,3.173-1.631c2.445,0,4.163,1.741,4.163,4.913v1.631c0,3.194-1.74,4.913-4.163,4.913a3.507,3.507,0,0,1-3.173-1.609Zm0-8.593c0,2.049,1.125,3.3,2.843,3.3,1.74,0,2.821-1.256,2.821-3.3V140.01c0-2.028-1.058-3.305-2.821-3.305-1.7,0-2.843,1.212-2.843,3.173Z" transform="translate(22.873 13.706)" fill="#fff"/>
    <path id="Pfad_378" data-name="Pfad 378" d="M236.993,146.828a.324.324,0,0,1-.352-.352V131.8a.36.36,0,0,1,.352-.4h.925a.377.377,0,0,1,.374.4v5.442a3.351,3.351,0,0,1,3.084-1.652c2.709,0,4.142,1.984,4.142,4.913v5.971a.353.353,0,0,1-.374.352h-.925a.341.341,0,0,1-.374-.352V140.4c0-2.137-1.125-3.305-2.777-3.305-1.63,0-2.775,1.169-2.775,3.305v6.081a.341.341,0,0,1-.374.352Z" transform="translate(23.989 13.321)" fill="#fff"/>
    <path id="Pfad_379" data-name="Pfad 379" d="M247.4,150.829a.359.359,0,0,1-.374-.374v-.838a.358.358,0,0,1,.374-.373h.859a2.108,2.108,0,0,0,2.226-1.7l.463-1.279L246.9,136.112a1.31,1.31,0,0,1-.154-.441.255.255,0,0,1,.265-.264h1.1c.132,0,.307.088.419.352l3.326,8.549,3.173-8.593c.088-.22.22-.308.374-.308h1.123a.25.25,0,0,1,.242.264,1.619,1.619,0,0,1-.132.4l-4.627,11.787c-.793,1.984-1.455,2.975-3.679,2.975Z" transform="translate(25.012 13.726)" fill="#fff"/>
    <path id="Pfad_380" data-name="Pfad 380" d="M265.548,143.446c0,2.358-1.9,3.217-4.142,3.217-2.511,0-3.944-1.454-4.164-2.975a.866.866,0,0,1,.023-.242.288.288,0,0,1,.285-.22h.925a.288.288,0,0,1,.331.264,2.445,2.445,0,0,0,2.621,1.74c1.41,0,2.49-.439,2.49-1.761,0-2.844-6.5-.574-6.5-5.2,0-2.226,2-3.062,3.878-3.062,3.393,0,3.812,2.335,3.988,2.93v.154a.3.3,0,0,1-.309.286h-.947c-.2,0-.263-.088-.307-.286-.155-.683-.53-1.63-2.468-1.63-.991,0-2.2.33-2.2,1.564,0,3,6.5.727,6.5,5.222" transform="translate(26.077 13.706)" fill="#fff"/>
    <path id="Pfad_381" data-name="Pfad 381" d="M267.321,132.49a1.123,1.123,0,1,1,1.125,1.122,1.076,1.076,0,0,1-1.125-1.122m.661,14.342a.342.342,0,0,1-.374-.352V136.213a.377.377,0,0,1,.374-.4h.926a.391.391,0,0,1,.374.4V146.48a.353.353,0,0,1-.374.352Z" transform="translate(27.099 13.317)" fill="#fff"/>
    <path id="Pfad_382" data-name="Pfad 382" d="M273.779,146.828h-.924a.325.325,0,0,1-.354-.352V131.8a.36.36,0,0,1,.354-.4h.924a.376.376,0,0,1,.374.4v10.333l5-5.926c.2-.242.351-.4.638-.4h1.167a.234.234,0,0,1,.221.264c0,.11-.066.219-.242.419l-3.636,4.23,4.054,5.441a.79.79,0,0,1,.219.42.231.231,0,0,1-.242.242h-1.278a.655.655,0,0,1-.485-.286l-3.436-4.648-1.984,2.356v2.226a.341.341,0,0,1-.374.352" transform="translate(27.624 13.321)" fill="#fff"/>
    <path id="Pfad_383" data-name="Pfad 383" d="M282.381,144.5a1.2,1.2,0,0,1,1.278-1.256c.793,0,1.322.507,1.322,1.718,0,2.975-2.049,3.922-2.4,3.922-.11,0-.176-.022-.176-.22v-.749c0-.242.022-.264.242-.4a2.306,2.306,0,0,0,.925-1.762,1.189,1.189,0,0,1-1.189-1.257" transform="translate(28.625 14.521)" fill="#fff"/>
    <path id="Pfad_384" data-name="Pfad 384" d="M108.339,170.828h-.925a.335.335,0,0,1-.352-.352V155.8a.373.373,0,0,1,.352-.4h.925a.4.4,0,0,1,.4.4v7.932l7.227-7.932c.242-.242.4-.4.595-.4h1.213a.237.237,0,0,1,.241.264c0,.154-.11.286-.264.463l-5.244,5.684,5.332,8.394a.94.94,0,0,1,.176.376.231.231,0,0,1-.241.242h-1.28a.469.469,0,0,1-.439-.286l-4.715-7.492-2.6,2.844v4.582a.36.36,0,0,1-.4.352" transform="translate(10.853 15.754)" fill="#fff"/>
    <path id="Pfad_385" data-name="Pfad 385" d="M119.693,170.828a.325.325,0,0,1-.352-.352V155.8a.36.36,0,0,1,.352-.4h.925a.377.377,0,0,1,.374.4v14.674a.341.341,0,0,1-.374.352Z" transform="translate(12.098 15.754)" fill="#fff"/>
    <path id="Pfad_386" data-name="Pfad 386" d="M123.961,156.49a1.123,1.123,0,1,1,1.125,1.122,1.076,1.076,0,0,1-1.125-1.122m.661,14.342a.342.342,0,0,1-.374-.352V160.213a.377.377,0,0,1,.374-.4h.926a.391.391,0,0,1,.374.4V170.48a.353.353,0,0,1-.374.352Z" transform="translate(12.566 15.75)" fill="#fff"/>
    <path id="Pfad_387" data-name="Pfad 387" d="M130.4,170.443h-.925a.341.341,0,0,1-.374-.352V159.824a.377.377,0,0,1,.374-.4h.925a.391.391,0,0,1,.376.4v1.035a3.182,3.182,0,0,1,2.93-1.652,3.51,3.51,0,0,1,3.415,2.049,3.6,3.6,0,0,1,3.414-2.049c3.129,0,3.966,1.94,3.966,5.11v5.773a.341.341,0,0,1-.374.352H143.2a.341.341,0,0,1-.374-.352v-5.861c0-2.069-.441-3.524-2.556-3.524-2,0-2.621,1.3-2.621,3.524v5.861a.353.353,0,0,1-.374.352h-.947a.324.324,0,0,1-.352-.352v-5.861c0-2.291-.6-3.524-2.556-3.524-2.093,0-2.643,1.5-2.643,3.524v5.861a.353.353,0,0,1-.376.352" transform="translate(13.087 16.139)" fill="#fff"/>
    <path id="Pfad_388" data-name="Pfad 388" d="M154.157,170.09a.36.36,0,0,1-.4.352h-.838a.341.341,0,0,1-.373-.352v-1.057a3.237,3.237,0,0,1-3.041,1.631h-.419c-2.028,0-3.57-1.057-3.57-3.239,0-2.6,2.028-3.239,4.076-3.239h2.953v-.749c0-1.366-.242-2.731-2.534-2.731-1.74,0-2.182.683-2.358,1.586a.317.317,0,0,1-.33.286h-.947a.279.279,0,0,1-.308-.308.424.424,0,0,1,.022-.154c.2-1.322.969-2.909,3.922-2.909,3.768,0,4.142,2.379,4.142,4.274Zm-4.517-4.539c-1.828,0-2.511.574-2.511,1.873,0,1.256.991,1.828,2.159,1.828h.441c2.314,0,2.821-1.7,2.821-3v-.706Z" transform="translate(14.751 16.139)" fill="#fff"/>
    <path id="Pfad_389" data-name="Pfad 389" d="M160.554,170.687c-3.019,0-3.525-1.3-3.525-3.878v-5.618h-1.7a.342.342,0,0,1-.354-.374v-.749a.361.361,0,0,1,.354-.4c1.166,0,1.74-.264,1.74-1.653V157.2a.361.361,0,0,1,.352-.4h.881a.378.378,0,0,1,.374.4v2.467h2.49a.376.376,0,0,1,.373.4v.749a.358.358,0,0,1-.373.374h-2.49v5.464c0,1.96.22,2.49,2.049,2.49h.442a.376.376,0,0,1,.373.4v.793a.341.341,0,0,1-.373.352Z" transform="translate(15.71 15.896)" fill="#fff"/>
    <path id="Pfad_390" data-name="Pfad 390" d="M162.721,164.119c0-3.084,1.938-4.913,4.494-4.913,2.534,0,4.495,1.829,4.495,4.913v1.675c0,3.085-1.96,4.869-4.495,4.869-2.555,0-4.494-1.784-4.494-4.869Zm1.652,1.763c0,2.159,1.189,3.3,2.842,3.3s2.821-1.145,2.821-3.3V164.01c0-2.138-1.167-3.305-2.821-3.305s-2.842,1.167-2.842,3.305Z" transform="translate(16.495 16.139)" fill="#fff"/>
    <path id="Pfad_391" data-name="Pfad 391" d="M174.054,170.828a.324.324,0,0,1-.352-.352V155.8a.36.36,0,0,1,.352-.4h.925a.377.377,0,0,1,.374.4v14.674a.341.341,0,0,1-.374.352Z" transform="translate(17.608 15.754)" fill="#fff"/>
    <path id="Pfad_392" data-name="Pfad 392" d="M178.021,164.119c0-3.084,1.938-4.913,4.494-4.913,2.534,0,4.495,1.829,4.495,4.913v1.675c0,3.085-1.96,4.869-4.495,4.869-2.555,0-4.494-1.784-4.494-4.869Zm1.652,1.763c0,2.159,1.189,3.3,2.842,3.3s2.821-1.145,2.821-3.3V164.01c0-2.138-1.167-3.305-2.821-3.305s-2.842,1.167-2.842,3.305Z" transform="translate(18.046 16.139)" fill="#fff"/>
    <path id="Pfad_393" data-name="Pfad 393" d="M192.023,175.171c-2.446,0-3.7-1.454-3.7-3.2a2.669,2.669,0,0,1,1.366-2.489,1.824,1.824,0,0,1-1.145-1.763,1.862,1.862,0,0,1,1.7-1.938,3.158,3.158,0,0,1-1.41-2.777,3.73,3.73,0,0,1,4.032-3.7h.595a3.784,3.784,0,0,1,2.555.924V158.58a.371.371,0,0,1,.374-.373h.794a.371.371,0,0,1,.373.373v4.429a3.69,3.69,0,0,1-4.009,3.724h-2.27c-.749,0-1.212.308-1.212.991,0,.749.441.992,1.564.992h2.843c2.423,0,3.7,1.454,3.7,3.26,0,1.785-1.278,3.2-3.7,3.2Zm-2.071-3.217c0,1.1.617,1.828,2.291,1.828h1.984c1.7,0,2.313-.727,2.313-1.828s-.617-1.872-2.313-1.872h-1.984c-1.674,0-2.291.771-2.291,1.872m.507-8.945a2.276,2.276,0,0,0,2.49,2.336h.484a2.332,2.332,0,1,0,0-4.65h-.484a2.272,2.272,0,0,0-2.49,2.314" transform="translate(19.09 16.038)" fill="#fff"/>
    <path id="Pfad_394" data-name="Pfad 394" d="M199.3,156.49a1.123,1.123,0,1,1,1.125,1.122,1.076,1.076,0,0,1-1.125-1.122m.661,14.342a.342.342,0,0,1-.374-.352V160.213a.377.377,0,0,1,.374-.4h.926a.391.391,0,0,1,.374.4V170.48a.353.353,0,0,1-.374.352Z" transform="translate(20.203 15.75)" fill="#fff"/>
    <path id="Pfad_395" data-name="Pfad 395" d="M205.634,166.015a2.883,2.883,0,0,0,2.886,3.172,2.586,2.586,0,0,0,2.666-1.872.4.4,0,0,1,.354-.242h1.035a.245.245,0,0,1,.242.242,1.237,1.237,0,0,1-.088.33,4.253,4.253,0,0,1-4.209,3.019c-2.555,0-4.538-1.784-4.538-4.869v-1.675c0-3.084,1.962-4.913,4.494-4.913,2.556,0,4.495,1.873,4.495,4.891v1.079a.357.357,0,0,1-.373.374h-6.963Zm5.706-1.785v-.33c0-2.027-1.189-3.194-2.865-3.194-1.629,0-2.842,1.167-2.842,3.217v.307Z" transform="translate(20.678 16.139)" fill="#fff"/>
    <path id="Pfad_396" data-name="Pfad 396" d="M227.838,159.407a.391.391,0,0,1,.374.4V170.07a.353.353,0,0,1-.374.352h-.925a.342.342,0,0,1-.376-.352V169.1a3.293,3.293,0,0,1-3.039,1.542c-2.534,0-3.879-1.784-3.879-4.869V159.8a.378.378,0,0,1,.376-.4h.925a.392.392,0,0,1,.374.4v6.059c0,2.159.881,3.3,2.533,3.3,1.631,0,2.709-1.145,2.709-3.3V159.8a.378.378,0,0,1,.376-.4Z" transform="translate(22.263 16.159)" fill="#fff"/>
    <path id="Pfad_397" data-name="Pfad 397" d="M231.055,170.443a.341.341,0,0,1-.374-.352V159.824a.377.377,0,0,1,.374-.4h.925a.391.391,0,0,1,.376.4v1.057a3.322,3.322,0,0,1,3.083-1.674c2.71,0,4.143,1.984,4.143,4.913v5.971a.36.36,0,0,1-.4.352h-.926a.324.324,0,0,1-.351-.352V164.01c0-2.137-1.124-3.305-2.8-3.305-1.631,0-2.753,1.169-2.753,3.305v6.081a.353.353,0,0,1-.376.352Z" transform="translate(23.384 16.139)" fill="#fff"/>
    <path id="Pfad_398" data-name="Pfad 398" d="M248.777,169.44a3.534,3.534,0,0,1-3.173,1.609c-2.423,0-4.163-1.718-4.163-4.913v-1.63c0-3.173,1.717-4.913,4.163-4.913a3.535,3.535,0,0,1,3.173,1.63V155.8a.373.373,0,0,1,.352-.4h.925a.4.4,0,0,1,.4.4v14.674a.361.361,0,0,1-.4.352h-.925a.335.335,0,0,1-.352-.352Zm0-5.176c0-1.96-1.145-3.173-2.843-3.173-1.762,0-2.842,1.278-2.842,3.305v1.872c0,2.05,1.079,3.3,2.82,3.3s2.865-1.254,2.865-3.3Z" transform="translate(24.475 15.754)" fill="#fff"/>
    <path id="Pfad_399" data-name="Pfad 399" d="M107.413,194.828a.335.335,0,0,1-.352-.352V179.8a.373.373,0,0,1,.352-.4h1.763a.38.38,0,0,1,.351.22l4.869,12.932,4.913-12.91c.066-.154.154-.242.308-.242h1.719a.391.391,0,0,1,.373.4v14.674a.353.353,0,0,1-.373.352h-.9a.324.324,0,0,1-.352-.352V181.764l-4.913,12.822a.356.356,0,0,1-.351.242h-.86a.324.324,0,0,1-.352-.242l-4.934-12.822v12.712a.342.342,0,0,1-.376.352Z" transform="translate(10.853 18.187)" fill="#fff"/>
    <path id="Pfad_400" data-name="Pfad 400" d="M124.973,190.015a2.883,2.883,0,0,0,2.886,3.172,2.585,2.585,0,0,0,2.666-1.872.4.4,0,0,1,.354-.242h1.035a.245.245,0,0,1,.242.242,1.238,1.238,0,0,1-.088.33,4.253,4.253,0,0,1-4.209,3.019c-2.555,0-4.538-1.784-4.538-4.869v-1.675c0-3.084,1.962-4.913,4.494-4.913,2.557,0,4.495,1.873,4.495,4.891v1.079a.357.357,0,0,1-.373.374h-6.963Zm5.706-1.785v-.33c0-2.027-1.189-3.194-2.865-3.194-1.629,0-2.842,1.167-2.842,3.217v.307Z" transform="translate(12.501 18.572)" fill="#fff"/>
    <path id="Pfad_401" data-name="Pfad 401" d="M138.217,194.687c-3.019,0-3.525-1.3-3.525-3.878v-5.618H133a.342.342,0,0,1-.354-.374v-.749a.361.361,0,0,1,.354-.4c1.165,0,1.74-.264,1.74-1.653V181.2a.361.361,0,0,1,.352-.4h.881a.378.378,0,0,1,.374.4v2.467h2.49a.376.376,0,0,1,.373.4v.749a.358.358,0,0,1-.373.374h-2.49v5.464c0,1.96.219,2.49,2.049,2.49h.442a.376.376,0,0,1,.373.4v.793a.341.341,0,0,1-.373.352Z" transform="translate(13.446 18.328)" fill="#fff"/>
    <path id="Pfad_402" data-name="Pfad 402" d="M142.034,190.015a2.883,2.883,0,0,0,2.886,3.172,2.585,2.585,0,0,0,2.666-1.872.4.4,0,0,1,.354-.242h1.035a.245.245,0,0,1,.242.242,1.238,1.238,0,0,1-.088.33,4.253,4.253,0,0,1-4.209,3.019c-2.555,0-4.538-1.784-4.538-4.869v-1.675c0-3.084,1.962-4.913,4.494-4.913,2.557,0,4.495,1.873,4.495,4.891v1.079a.357.357,0,0,1-.373.374h-6.963Zm5.706-1.785v-.33c0-2.027-1.189-3.194-2.865-3.194-1.629,0-2.842,1.167-2.842,3.217v.307Z" transform="translate(14.231 18.572)" fill="#fff"/>
    <path id="Pfad_403" data-name="Pfad 403" d="M150.863,188.119c0-3.084,1.938-4.913,4.494-4.913,2.534,0,4.495,1.829,4.495,4.913v1.675c0,3.085-1.96,4.869-4.495,4.869-2.555,0-4.494-1.784-4.494-4.869Zm1.652,1.763c0,2.159,1.189,3.3,2.842,3.3s2.821-1.145,2.821-3.3V188.01c0-2.138-1.167-3.305-2.821-3.305s-2.842,1.167-2.842,3.305Z" transform="translate(15.293 18.572)" fill="#fff"/>
    <path id="Pfad_404" data-name="Pfad 404" d="M162.177,194.423a.341.341,0,0,1-.374-.352V183.8a.377.377,0,0,1,.374-.4h.837a.378.378,0,0,1,.376.4v1.476a3.256,3.256,0,0,1,3.106-1.872h.308a.4.4,0,0,1,.4.4v.881a.377.377,0,0,1-.4.374h-.33c-2.2,0-3.019,1.828-3.019,3.636v5.376a.341.341,0,0,1-.374.352Z" transform="translate(16.402 18.592)" fill="#fff"/>
    <path id="Pfad_405" data-name="Pfad 405" d="M168.523,188.119c0-3.084,1.938-4.913,4.494-4.913,2.534,0,4.495,1.829,4.495,4.913v1.675c0,3.085-1.96,4.869-4.495,4.869-2.555,0-4.494-1.784-4.494-4.869Zm1.652,1.763c0,2.159,1.189,3.3,2.842,3.3s2.821-1.145,2.821-3.3V188.01c0-2.138-1.167-3.305-2.821-3.305s-2.842,1.167-2.842,3.305Z" transform="translate(17.083 18.572)" fill="#fff"/>
    <path id="Pfad_406" data-name="Pfad 406" d="M179.856,194.828a.324.324,0,0,1-.352-.352V179.8a.36.36,0,0,1,.352-.4h.925a.377.377,0,0,1,.374.4v14.674a.341.341,0,0,1-.374.352Z" transform="translate(18.196 18.187)" fill="#fff"/>
    <path id="Pfad_407" data-name="Pfad 407" d="M183.823,188.119c0-3.084,1.938-4.913,4.494-4.913,2.534,0,4.495,1.829,4.495,4.913v1.675c0,3.085-1.96,4.869-4.495,4.869-2.555,0-4.494-1.784-4.494-4.869Zm1.652,1.763c0,2.159,1.189,3.3,2.842,3.3s2.821-1.145,2.821-3.3V188.01c0-2.138-1.167-3.305-2.821-3.305s-2.842,1.167-2.842,3.305Z" transform="translate(18.634 18.572)" fill="#fff"/>
    <path id="Pfad_408" data-name="Pfad 408" d="M197.825,199.171c-2.446,0-3.7-1.454-3.7-3.2a2.669,2.669,0,0,1,1.366-2.489,1.824,1.824,0,0,1-1.145-1.763,1.862,1.862,0,0,1,1.7-1.938,3.158,3.158,0,0,1-1.41-2.777,3.73,3.73,0,0,1,4.032-3.7h.595a3.784,3.784,0,0,1,2.555.924V182.58a.371.371,0,0,1,.374-.373h.794a.371.371,0,0,1,.373.373v4.429a3.69,3.69,0,0,1-4.009,3.724h-2.27c-.749,0-1.212.308-1.212.991,0,.749.441.992,1.564.992h2.843c2.423,0,3.7,1.454,3.7,3.26,0,1.785-1.278,3.2-3.7,3.2Zm-2.071-3.217c0,1.1.617,1.828,2.291,1.828h1.984c1.7,0,2.313-.727,2.313-1.828s-.617-1.872-2.313-1.872h-1.984c-1.674,0-2.291.771-2.291,1.872m.507-8.945a2.276,2.276,0,0,0,2.49,2.336h.484a2.332,2.332,0,1,0,0-4.65h-.484a2.272,2.272,0,0,0-2.49,2.314" transform="translate(19.679 18.47)" fill="#fff"/>
    <path id="Pfad_409" data-name="Pfad 409" d="M205.1,180.49a1.124,1.124,0,1,1,1.126,1.122,1.077,1.077,0,0,1-1.126-1.122m.661,14.342a.341.341,0,0,1-.373-.352V184.213a.377.377,0,0,1,.373-.4h.927a.391.391,0,0,1,.373.4V194.48a.353.353,0,0,1-.373.352Z" transform="translate(20.791 18.182)" fill="#fff"/>
    <path id="Pfad_410" data-name="Pfad 410" d="M211.435,190.015a2.883,2.883,0,0,0,2.886,3.172,2.585,2.585,0,0,0,2.666-1.872.4.4,0,0,1,.354-.242h1.035a.245.245,0,0,1,.242.242,1.238,1.238,0,0,1-.088.33,4.253,4.253,0,0,1-4.209,3.019c-2.555,0-4.538-1.784-4.538-4.869v-1.675c0-3.084,1.962-4.913,4.494-4.913,2.557,0,4.495,1.873,4.495,4.891v1.079a.357.357,0,0,1-.373.374h-6.963Zm5.706-1.785v-.33c0-2.027-1.189-3.194-2.865-3.194-1.629,0-2.842,1.167-2.842,3.217v.307Z" transform="translate(21.266 18.572)" fill="#fff"/>
    <path id="Pfad_411" data-name="Pfad 411" d="M76.529,38.532c-2.78-3.213-3.927-6.54-3.412-9.887.792-5.138,5.224-9.34,7.923-11.47a.2.2,0,0,0,.026-.283c-.617-.763-1.25-1.51-1.908-2.235a.2.2,0,0,0-.276-.026c-3.108,2.462-8.087,7.28-9.05,13.493-.676,4.36.731,8.6,4.182,12.584A32.364,32.364,0,0,0,91.682,51.477a.2.2,0,0,0,.251-.186c.033-.576.112-2.066.122-3A.192.192,0,0,0,91.9,48.1a28.713,28.713,0,0,1-15.373-9.571" transform="translate(7.062 1.479)" fill="#fff"/>
    <path id="Pfad_412" data-name="Pfad 412" d="M61.176,63.657c-10.332,5.554-15.222,5.012-17.506,3.578-2.64-1.658-2.779-5.169-2.716-6.6.235-5.347,3.014-10.051,6.233-15.5,4.013-6.79,8.562-14.487,9.4-25.561C56.938,15.006,55.2,8.081,45.779.042L45.667,0c-1.531,0-3.044.073-4.539.208A.163.163,0,0,0,41.052.5c10.634,8.06,12.539,14.667,12.222,18.825-.782,10.3-5.121,17.642-8.951,24.12-3.3,5.588-6.42,10.865-6.692,17.044-.186,4.256,1.37,7.742,4.271,9.563a10.374,10.374,0,0,0,5.619,1.462c4.03,0,9.124-1.645,15.229-4.928,8-4.3,17.44-3.22,28.06,3.18a.161.161,0,0,0,.23-.07c.412-.925.8-1.862,1.16-2.817a.166.166,0,0,0-.072-.2c-11.535-6.837-21.944-7.866-30.952-3.022" transform="translate(3.813)" fill="#bbc400"/>
    <path id="Pfad_413" data-name="Pfad 413" d="M30.285,84.37c-3.948-14,1.035-26.079,7.442-39.3.62-1.28,1.236-2.516,1.837-3.718,4.178-8.379,7.787-15.615,5.965-24.719-1.547-7.74-7.965-12.248-13.035-14.66a.133.133,0,0,0-.1-.007q-2.187.667-4.285,1.526a.13.13,0,0,0,0,.243c4.45,1.619,12.571,5.611,14.158,13.549,1.6,7.987-1.615,14.428-5.682,22.583-.6,1.214-1.226,2.46-1.853,3.752-6.71,13.844-11.917,26.535-7.649,41.655a34.29,34.29,0,0,0,5.48,11.6.13.13,0,0,0,.07.048,49.2,49.2,0,0,0,5.5,1.307.136.136,0,0,0,.108-.239c-2.415-1.935-5.771-5.873-7.957-13.621" transform="translate(2.589 0.199)" fill="#fff"/>
    <path id="Pfad_414" data-name="Pfad 414" d="M35.57,27.088C37.187,14.667,28.348,9.541,21.908,7.471a.141.141,0,0,0-.126.018Q20.167,8.56,18.646,9.755a.144.144,0,0,0,.064.251c13.234,2.93,14.223,11.583,13.563,16.654C28.528,55.428,11.717,64.743,3.4,67.624a.14.14,0,0,0-.082.189q.59,1.427,1.265,2.807a.143.143,0,0,0,.176.075,41.755,41.755,0,0,0,13.966-8.289C27.92,54.2,33.587,42.321,35.57,27.088" transform="translate(0.335 0.757)" fill="#fff"/>
    <path id="Pfad_415" data-name="Pfad 415" d="M7.344,52.292a9.062,9.062,0,0,0,2.655.4c3.227,0,6.533-1.715,9.539-5C24.482,42.286,28.2,32.455,25.588,26c-2.989-7.378-9.9-8.892-14.755-9.094a.121.121,0,0,0-.1.045c-.8,1-1.572,2.033-2.3,3.1a.118.118,0,0,0,.1.184c5.418-.152,11.444.786,13.968,7.017,1.868,4.61-.615,12.944-5.421,18.2C15.391,47.3,12,50.236,8.314,49.111,5.309,48.2,2.677,43.437.977,38.675a.118.118,0,0,0-.227.018A49.788,49.788,0,0,0,0,44.737a.12.12,0,0,0,.014.065c1.739,3.326,4.165,6.526,7.33,7.49" transform="translate(0 1.714)" fill="#fff"/>
    <path id="Pfad_416" data-name="Pfad 416" d="M10.105,39.3a5.383,5.383,0,0,0,4.959-1.814h0c2.816-3.047,3.2-6.436,1.023-9.063C13.569,25.38,8.157,24.229,5.162,26.1c-1.12.7-3.491,2.851-1.3,7.691,1.356,2.992,3.747,5.1,6.241,5.507M6.924,28.923A3.421,3.421,0,0,1,8.7,28.518a6.655,6.655,0,0,1,4.825,2.025c.4.485,1.619,1.955-.9,4.686a2.111,2.111,0,0,1-1.988.789c-1.363-.22-2.868-1.665-3.742-3.6-.561-1.237-1.009-2.848.032-3.5" transform="translate(0.301 2.554)" fill="#fff"/>
    <path id="Pfad_417" data-name="Pfad 417" d="M80.261,27.015a9.791,9.791,0,0,0,1.732,9.417,14.82,14.82,0,0,0,8.4,5.215.221.221,0,0,0,.272-.236q-.192-1.6-.485-3.171a.212.212,0,0,0-.141-.16,10.965,10.965,0,0,1-5.417-3.69,6.446,6.446,0,0,1-1.227-6.256,6.165,6.165,0,0,1,2.22-2.923.205.205,0,0,0,.066-.26q-.661-1.3-1.393-2.561a.219.219,0,0,0-.306-.073,9.484,9.484,0,0,0-3.718,4.7" transform="translate(8.081 2.259)" fill="#fff"/>
    <path id="Pfad_418" data-name="Pfad 418" d="M67.653,52.521a17.966,17.966,0,0,1-4.589-.013,6.2,6.2,0,0,1-4.806-3.576c-1.43-3.317-.082-8.363,3.8-14.209,4.488-6.766,6.952-18.506.863-31.126a.176.176,0,0,0-.089-.085q-2.08-.856-4.252-1.521a.163.163,0,0,0-.194.233c4.113,7.27,7.942,20.046.9,30.66-5.793,8.734-5.417,14.263-4.079,17.363A9.469,9.469,0,0,0,62.5,55.785a21.054,21.054,0,0,0,5.415.051c4.387-.347,10.335-.791,24,5.584a.169.169,0,0,0,.235-.108c.245-1,.453-2,.635-3.021a.169.169,0,0,0-.1-.183c-14.022-6.445-20.345-5.957-25.033-5.587" transform="translate(5.512 0.201)" fill="#fff"/>
    <path id="Pfad_419" data-name="Pfad 419" d="M68.568,63.013A24.725,24.725,0,0,0,53.1,71.334a19.8,19.8,0,0,0-4.774,15.718A18.9,18.9,0,0,0,49.908,92.4a.253.253,0,0,0,.256.143c1-.112,2-.261,2.98-.433a.238.238,0,0,0,.167-.35,15.525,15.525,0,0,1-1.694-5.17,16.514,16.514,0,0,1,4.016-13.1,21.958,21.958,0,0,1,29.951-2.735.239.239,0,0,0,.354-.048c.528-.8,1.026-1.612,1.509-2.44a.249.249,0,0,0-.057-.318,24.693,24.693,0,0,0-18.821-4.933" transform="translate(4.879 6.362)" fill="#fff"/>
    <path id="Pfad_420" data-name="Pfad 420" d="M72.614,71.369c-5.7.806-9.712,5.838-8.952,11.219A9.343,9.343,0,0,0,65.2,86.552a.226.226,0,0,0,.286.072q1.305-.662,2.565-1.4a.212.212,0,0,0,.058-.313,6.05,6.05,0,0,1-1.158-2.791c-.5-3.565,2.243-6.912,6.125-7.461a7.356,7.356,0,0,1,5.847,1.665.212.212,0,0,0,.3-.013c.663-.7,1.313-1.424,1.934-2.166a.227.227,0,0,0-.023-.313,10.7,10.7,0,0,0-8.519-2.466" transform="translate(6.444 7.224)" fill="#fff"/>
    <path id="Pfad_421" data-name="Pfad 421" d="M128.562,24.658H119.1a1.271,1.271,0,0,0-1.285,1.283v2.144a1.308,1.308,0,0,0,1.285,1.327h5.736v1.365A6.014,6.014,0,0,1,118.68,36.6c-3.859,0-6.452-2.948-6.452-7.335V22.788c0-4.413,2.576-7.376,6.41-7.376a5.678,5.678,0,0,1,5.913,5.088c.16.751.533,1.133,1.109,1.133h3.2a.927.927,0,0,0,.947-.99,3.07,3.07,0,0,0-.044-.632,10.8,10.8,0,0,0-11.121-9.482c-6.822,0-11.585,5.007-11.585,12.175v6.56c0,7.168,4.66,12.175,11.333,12.175a8.934,8.934,0,0,0,6.83-2.785v1.079a1.272,1.272,0,0,0,1.285,1.285h2.061a1.27,1.27,0,0,0,1.283-1.285V25.941a1.269,1.269,0,0,0-1.283-1.283" transform="translate(10.852 1.067)" fill="#fff"/>
    <path id="Pfad_422" data-name="Pfad 422" d="M161.49,18.164c-5.509,0-9.357,4.074-9.357,9.9V30.8c0,5.805,3.848,9.862,9.357,9.862,5.533,0,9.4-4.056,9.4-9.862V28.069c0-5.831-3.866-9.9-9.4-9.9m-4.181,9.4c0-2.975,1.641-4.9,4.181-4.9,2.606,0,4.224,1.875,4.224,4.9v3.742c0,3.021-1.618,4.9-4.224,4.9-2.54,0-4.181-1.922-4.181-4.9Z" transform="translate(15.422 1.841)" fill="#fff"/>
    <path id="Pfad_423" data-name="Pfad 423" d="M184.676,23.48c-3.4-.947-6.342-1.767-6.342-4.643,0-2.612,1.516-3.677,5.233-3.677,3.937,0,4.707,2.1,4.944,3.7a1.257,1.257,0,0,0,1.321,1.181h2.522a1.273,1.273,0,0,0,1.285-1.285c0-4.093-3.1-8.222-10.03-8.222-6.641,0-10.451,3.029-10.451,8.307,0,6.65,5.37,8.149,9.685,9.353,3.354.937,6.25,1.746,6.25,4.521,0,2.825-1.756,4.14-5.527,4.14-5.084,0-5.942-3.413-6.08-4.915a1.3,1.3,0,0,0-1.236-1.14h-2.565a1.309,1.309,0,0,0-1.285,1.327c0,3.746,2.964,9.316,11.125,9.316,9.967,0,10.743-6.681,10.743-8.728,0-6.559-5.1-7.978-9.593-9.231" transform="translate(17.476 1.067)" fill="#fff"/>
    <path id="Pfad_424" data-name="Pfad 424" d="M207.19,18.164a7.088,7.088,0,0,0-5.528,2.2v-.452a1.346,1.346,0,0,0-1.327-1.327h-2.564a1.308,1.308,0,0,0-1.285,1.327V47.327a1.307,1.307,0,0,0,1.285,1.325h2.564a1.345,1.345,0,0,0,1.327-1.325v-8.81a7.067,7.067,0,0,0,5.528,2.147c5.042,0,8.054-3.749,8.054-10.031V28.069c0-6.293-2.936-9.9-8.054-9.9m2.878,9.4v3.742c0,3.065-1.564,4.9-4.182,4.9s-4.224-1.875-4.224-4.9V27.439c0-2.9,1.659-4.77,4.224-4.77,3.084,0,4.182,2.529,4.182,4.9" transform="translate(19.918 1.841)" fill="#fff"/>
    <path id="Pfad_425" data-name="Pfad 425" d="M228.522,18.9a6.915,6.915,0,0,0-5.484,2.214V12.238a1.346,1.346,0,0,0-1.327-1.326h-2.566a1.307,1.307,0,0,0-1.283,1.326V39.694a1.271,1.271,0,0,0,1.283,1.285h2.566a1.309,1.309,0,0,0,1.327-1.285V28.3c0-3.021,1.585-4.9,4.138-4.9s4.14,1.876,4.14,4.9V39.694a1.271,1.271,0,0,0,1.284,1.285h2.565a1.308,1.308,0,0,0,1.327-1.285V28.8c0-6.294-2.907-9.9-7.971-9.9" transform="translate(22.085 1.106)" fill="#fff"/>
    <path id="Pfad_426" data-name="Pfad 426" d="M270.671,18.547h-.546a6.606,6.606,0,0,0-5.276,2.471V19.874a1.308,1.308,0,0,0-1.283-1.327h-2.355a1.308,1.308,0,0,0-1.285,1.327V38.919a1.272,1.272,0,0,0,1.285,1.285h2.522a1.308,1.308,0,0,0,1.326-1.285v-9.5c0-3.807,1.689-5.736,5.023-5.736h.588A1.308,1.308,0,0,0,272,22.4V19.874a1.346,1.346,0,0,0-1.327-1.327" transform="translate(26.349 1.88)" fill="#fff"/>
    <path id="Pfad_427" data-name="Pfad 427" d="M282.991,18.164c-5.446,0-9.4,4.165-9.4,9.9V30.8c0,5.805,3.883,9.863,9.442,9.863,3.108,0,6.789-1.021,8.374-5.289a1.838,1.838,0,0,0,.184-.677.988.988,0,0,0-.99-1.031h-2.731a1.417,1.417,0,0,0-1.191.673c-1.609,2-2.283,1.861-3.646,1.861-2.511,0-4.264-1.926-4.264-4.685v-.271h12.169a1.309,1.309,0,0,0,1.285-1.327V27.985c0-5.6-3.968-9.821-9.232-9.821m-4.223,9.106c0-2.753,1.7-4.6,4.223-4.6,2.566,0,4.224,1.79,4.224,4.56v.187h-8.446Z" transform="translate(27.734 1.841)" fill="#fff"/>
    <path id="Pfad_428" data-name="Pfad 428" d="M248.18,18.164c-5.447,0-9.4,4.165-9.4,9.9V30.8c0,5.805,3.883,9.863,9.442,9.863,3.107,0,6.789-1.021,8.373-5.289a1.818,1.818,0,0,0,.184-.677.988.988,0,0,0-.989-1.031h-2.733a1.419,1.419,0,0,0-1.191.673c-1.608,2-2.283,1.861-3.644,1.861-2.511,0-4.266-1.926-4.266-4.685v-.271h12.17a1.308,1.308,0,0,0,1.284-1.327V27.985c0-5.6-3.968-9.821-9.231-9.821m-4.224,9.106c0-2.753,1.7-4.6,4.224-4.6,2.565,0,4.223,1.79,4.223,4.56v.187h-8.446Z" transform="translate(24.205 1.841)" fill="#fff"/>
    <path id="Pfad_429" data-name="Pfad 429" d="M141.225,18.164c-5.447,0-9.4,4.165-9.4,9.9V30.8c0,5.805,3.883,9.863,9.442,9.863,3.107,0,6.789-1.021,8.373-5.289a1.818,1.818,0,0,0,.184-.677.988.988,0,0,0-.989-1.031H146.1a1.418,1.418,0,0,0-1.191.673c-1.608,2-2.283,1.861-3.644,1.861-2.511,0-4.266-1.926-4.266-4.685v-.271h12.17a1.308,1.308,0,0,0,1.284-1.327V27.985c0-5.6-3.968-9.821-9.231-9.821M137,27.27c0-2.753,1.7-4.6,4.224-4.6,2.565,0,4.223,1.79,4.223,4.56v.187H137Z" transform="translate(13.363 1.841)" fill="#fff"/>
    <path id="Pfad_430" data-name="Pfad 430" d="M109.506,80.926a.617.617,0,0,1-.632.42h-2.1a.441.441,0,0,1-.461-.463,4.1,4.1,0,0,1,.252-.84l9.965-27.456a.9.9,0,0,1,.8-.672h2.4a.857.857,0,0,1,.756.631L130.655,80.3a1.794,1.794,0,0,1,.169.587.441.441,0,0,1-.463.463h-2.144c-.42,0-.589-.169-.673-.42l-2.691-7.4H112.112Zm8.955-25.313-5.3,14.97H123.8Z" transform="translate(10.777 5.263)" fill="#fff"/>
    <path id="Pfad_431" data-name="Pfad 431" d="M148.1,59.55a.745.745,0,0,1,.715.757V79.9a.673.673,0,0,1-.715.672h-1.766a.651.651,0,0,1-.715-.672v-1.85a6.291,6.291,0,0,1-5.8,2.943c-4.835,0-7.4-3.405-7.4-9.292V60.307a.719.719,0,0,1,.715-.757H134.9a.745.745,0,0,1,.715.757V71.87c0,4.12,1.682,6.306,4.836,6.306,3.11,0,5.171-2.186,5.171-6.306V60.307a.719.719,0,0,1,.715-.757Z" transform="translate(13.424 6.037)" fill="#fff"/>
    <path id="Pfad_432" data-name="Pfad 432" d="M168.31,74.893c0,4.5-3.616,6.139-7.9,6.139-4.793,0-7.526-2.777-7.947-5.678a1.641,1.641,0,0,1,.044-.461.552.552,0,0,1,.546-.421h1.766a.549.549,0,0,1,.631.5c.42,1.556,1.807,3.321,5,3.321,2.692,0,4.752-.84,4.752-3.362,0-5.424-12.4-1.094-12.4-9.923,0-4.247,3.826-5.845,7.4-5.845,6.475,0,7.275,4.458,7.612,5.593v.294a.566.566,0,0,1-.589.546H165.41c-.379,0-.5-.166-.59-.546-.294-1.3-1.008-3.11-4.708-3.11-1.892,0-4.205.63-4.205,2.985,0,5.718,12.4,1.388,12.4,9.965" transform="translate(15.455 5.998)" fill="#fff"/>
    <path id="Pfad_433" data-name="Pfad 433" d="M179.7,81.076c-5.761,0-6.727-2.48-6.727-7.4V62.955h-3.239a.652.652,0,0,1-.672-.716V60.811a.687.687,0,0,1,.672-.758c2.229,0,3.323-.5,3.323-3.154V55.344a.686.686,0,0,1,.672-.756h1.683a.718.718,0,0,1,.714.756v4.709h4.751a.721.721,0,0,1,.716.758v1.428a.686.686,0,0,1-.716.716h-4.751V73.381c0,3.742.421,4.752,3.911,4.752h.84a.72.72,0,0,1,.716.757V80.4a.653.653,0,0,1-.716.672Z" transform="translate(17.138 5.534)" fill="#fff"/>
    <path id="Pfad_434" data-name="Pfad 434" d="M185.925,80.573a.651.651,0,0,1-.715-.672V60.308a.719.719,0,0,1,.715-.758h1.6a.719.719,0,0,1,.716.758v2.816a6.214,6.214,0,0,1,5.929-3.574h.588a.753.753,0,0,1,.757.758v1.681a.72.72,0,0,1-.757.716h-.63c-4.205,0-5.76,3.489-5.76,6.936V79.9a.651.651,0,0,1-.715.672Z" transform="translate(18.775 6.037)" fill="#fff"/>
    <path id="Pfad_435" data-name="Pfad 435" d="M198.991,53.982a2.144,2.144,0,1,1,2.144,2.144,2.053,2.053,0,0,1-2.144-2.144m1.26,27.372a.651.651,0,0,1-.714-.672V61.09a.719.719,0,0,1,.714-.758h1.767a.746.746,0,0,1,.715.758V80.683a.674.674,0,0,1-.715.672Z" transform="translate(20.172 5.255)" fill="#fff"/>
    <path id="Pfad_436" data-name="Pfad 436" d="M223.906,79.939a.688.688,0,0,1-.757.673h-1.6a.653.653,0,0,1-.715-.673V77.92c-.923,2.061-3.364,3.112-5.8,3.112h-.8c-3.869,0-6.813-2.019-6.813-6.181,0-4.963,3.869-6.181,7.779-6.181h5.635V67.24c0-2.606-.463-5.213-4.835-5.213-3.321,0-4.161,1.3-4.5,3.027a.6.6,0,0,1-.629.546h-1.808a.533.533,0,0,1-.589-.588.8.8,0,0,1,.043-.294c.378-2.522,1.849-5.551,7.484-5.551,7.19,0,7.9,4.541,7.9,8.158Zm-8.619-8.662c-3.489,0-4.792,1.093-4.792,3.575,0,2.4,1.892,3.49,4.119,3.49h.84c4.417,0,5.382-3.238,5.382-5.719V71.277Z" transform="translate(21.027 5.998)" fill="#fff"/>
  </g>
</svg>
